<?xml version="1.0" encoding="UTF-8"?>
<svg version="1.1" xmlns="http://www.w3.org/2000/svg" width="405" height="402">
<path d="M0 0 C2.95504403 1.25280384 3.51786286 2.96500345 4.9296875 5.80859375 C6.86550549 9.57808858 8.83939253 13.25819121 11.0546875 16.87109375 C13.0787589 20.19914093 15.00112893 23.56081728 16.8515625 26.98828125 C19.94734749 32.68933537 23.11105625 38.34936236 26.3046875 43.99609375 C27.15764404 45.50465942 27.15764404 45.50465942 28.02783203 47.04370117 C31.65971907 53.4507826 35.34419851 59.82267094 39.10009766 66.15771484 C43.68633306 73.9042133 48.15318784 81.71936148 52.63452148 89.52685547 C56.55365673 96.33411902 60.56116218 103.05624681 64.83203125 109.6484375 C66.0546875 111.87109375 66.0546875 111.87109375 66.0546875 114.87109375 C65.05050781 115.42796875 64.04632813 115.98484375 63.01171875 116.55859375 C55.25740172 120.87862455 47.6301798 125.32223085 40.09765625 130.01953125 C36.298381 132.33128538 32.41769779 134.45845566 28.4921875 136.546875 C25.98499964 137.85836391 25.98499964 137.85836391 23.4921875 139.6015625 C21.0546875 140.87109375 21.0546875 140.87109375 18.984375 140.95703125 C15.96188112 139.25611364 14.7451185 136.46820016 13.1796875 133.49609375 C12.83091553 132.86050537 12.48214355 132.22491699 12.12280273 131.57006836 C11.08709923 129.67709982 10.06880052 127.77569751 9.0546875 125.87109375 C8.07711473 124.05773358 7.09810412 122.24514728 6.1171875 120.43359375 C5.64410156 119.55832031 5.17101562 118.68304688 4.68359375 117.78125 C2.71510198 114.2644002 0.64200497 110.8183171 -1.4453125 107.37109375 C-4.56367846 102.22108465 -7.54858609 97.02974272 -10.39453125 91.72265625 C-13.47934331 86.05033181 -16.72611791 80.46791684 -19.9453125 74.87109375 C-25.74978175 77.63187492 -31.22477024 80.9201276 -36.7578125 84.18359375 C-46.56691104 89.94206346 -56.4464707 95.55933034 -66.39379883 101.07543945 C-67.85402466 101.88694458 -67.85402466 101.88694458 -69.34375 102.71484375 C-70.27928711 103.23433594 -71.21482422 103.75382812 -72.17871094 104.2890625 C-75.77920269 106.34793883 -79.2849183 108.54814439 -82.77587891 110.78710938 C-84.9453125 111.87109375 -84.9453125 111.87109375 -88.9453125 111.87109375 C-89.47898438 110.91332031 -90.01265625 109.95554687 -90.5625 108.96875 C-94.67228981 101.61630522 -98.84236685 94.30726198 -103.1328125 87.05859375 C-104.36348371 84.96832706 -105.59257893 82.87714963 -106.8203125 80.78515625 C-107.85793703 79.0197534 -108.90136069 77.25776243 -109.9453125 75.49609375 C-110.5021875 74.52671875 -111.0590625 73.55734375 -111.6328125 72.55859375 C-112.11105469 71.73746094 -112.58929688 70.91632813 -113.08203125 70.0703125 C-114.14366051 67.36579995 -114.08562735 66.52776812 -112.9453125 63.87109375 C-110.61962891 62.15112305 -110.61962891 62.15112305 -107.546875 60.4453125 C-105.86658203 59.49688477 -105.86658203 59.49688477 -104.15234375 58.52929688 C-102.95867125 57.871782 -101.76465905 57.21488345 -100.5703125 56.55859375 C-98.26946328 55.27328282 -95.96997066 53.98554027 -93.671875 52.6953125 C-92.54354248 52.06278564 -91.41520996 51.43025879 -90.25268555 50.77856445 C-86.22209284 48.45398921 -82.30980484 45.97648377 -78.41577148 43.43115234 C-74.91422419 41.21997662 -71.27915732 39.28791573 -67.62890625 37.3359375 C-65.02212847 35.91302386 -62.48244561 34.41421578 -59.9453125 32.87109375 C-56.61678987 30.84780586 -53.25560562 28.9246613 -49.828125 27.07421875 C-44.12706773 23.97843204 -38.46713455 20.81456939 -32.8203125 17.62109375 C-31.83200439 17.06260742 -30.84369629 16.50412109 -29.82543945 15.92871094 C-22.18539297 11.59961849 -14.6023416 7.18053096 -7.05078125 2.69921875 C-2.21611185 -0.14685079 -2.21611185 -0.14685079 0 0 Z " fill="#EE5AA0" transform="translate(270.9453125,8.12890625)"/>
<path d="M0 0 C1.39453125 1.80078125 1.39453125 1.80078125 2.8125 4.3125 C3.27269531 5.11300781 3.73289062 5.91351563 4.20703125 6.73828125 C5.22812042 8.5958182 6.24672109 10.45474082 7.25756836 12.31787109 C11.05958396 19.32087433 14.95295827 26.26868147 18.90405273 33.18847656 C19.9355083 34.99650877 20.96290162 36.80681031 21.99023438 38.6171875 C25.08596336 44.05259651 28.23285611 49.43150814 31.62890625 54.6875 C34.47819126 59.1030232 37.04081083 63.61397896 39.52148438 68.24511719 C42.02605151 72.91181724 44.64401616 77.5144132 47.25 82.125 C47.80703613 83.1154834 48.36407227 84.1059668 48.93798828 85.12646484 C51.59130088 89.82638054 54.27572589 94.49516097 57.1015625 99.09375 C57.57174805 99.86444824 58.04193359 100.63514648 58.52636719 101.42919922 C59.40231395 102.85538771 60.2903734 104.27423262 61.19238281 105.68408203 C64.04014962 110.33212037 64.04014962 110.33212037 63.84692383 113.54638672 C62.79414753 116.59637281 61.89121192 117.1501323 59.08203125 118.65625 C57.83365479 119.34509277 57.83365479 119.34509277 56.56005859 120.04785156 C55.65336426 120.52706055 54.74666992 121.00626953 53.8125 121.5 C51.9037775 122.54473951 49.99626572 123.59169341 48.08984375 124.640625 C47.09452637 125.18396484 46.09920898 125.72730469 45.07373047 126.28710938 C38.96332964 129.69223822 32.99723471 133.34934663 27.02270508 136.98632812 C26.14638428 137.51162109 25.27006348 138.03691406 24.3671875 138.578125 C23.59487793 139.04637695 22.82256836 139.51462891 22.02685547 139.99707031 C20 141 20 141 17 141 C16.66790527 140.41621582 16.33581055 139.83243164 15.99365234 139.23095703 C14.45529368 136.52829085 12.91515493 133.82664293 11.375 131.125 C10.85292969 130.2071875 10.33085937 129.289375 9.79296875 128.34375 C6.27619478 122.17854131 2.66861727 116.07581547 -1 110 C-14.65911336 87.25994282 -14.65911336 87.25994282 -18.94921875 77.94921875 C-19.84673917 75.83700437 -19.84673917 75.83700437 -22 75 C-24.19449932 75.99934922 -24.19449932 75.99934922 -26.62109375 77.53515625 C-27.55759766 78.09783203 -28.49410156 78.66050781 -29.45898438 79.24023438 C-30.93334961 80.14225586 -30.93334961 80.14225586 -32.4375 81.0625 C-39.04935015 85.0673664 -45.68371067 88.95790476 -52.48852539 92.62670898 C-55.88831457 94.48573631 -59.19664593 96.47613345 -62.5 98.5 C-67.80348409 101.71788999 -73.15618888 104.79348379 -78.6328125 107.7109375 C-81.06984322 108.9978234 -81.06984322 108.9978234 -83.5546875 110.6640625 C-86 112 -86 112 -90 112 C-90.4964502 111.11985229 -90.4964502 111.11985229 -91.00292969 110.22192383 C-92.00659922 108.44305255 -93.01071172 106.66443115 -94.01513672 104.88598633 C-95.17969556 102.82285219 -96.34276202 100.758875 -97.50439453 98.6940918 C-100.48057539 93.41373185 -103.48425902 88.15452219 -106.5703125 82.9375 C-107.1262207 81.99028076 -107.68212891 81.04306152 -108.25488281 80.06713867 C-109.31969858 78.25666305 -110.39431101 76.45190714 -111.47949219 74.65356445 C-111.95805664 73.835896 -112.43662109 73.01822754 -112.9296875 72.17578125 C-113.56753174 71.10710815 -113.56753174 71.10710815 -114.21826172 70.0168457 C-115 68 -115 68 -114.90063477 65.91577148 C-113.65976359 63.27627132 -112.19954448 62.57746833 -109.66015625 61.171875 C-108.75281738 60.65818359 -107.84547852 60.14449219 -106.91064453 59.61523438 C-105.46987549 58.81569336 -105.46987549 58.81569336 -104 58 C-102.12148525 56.9048282 -100.24520753 55.80581102 -98.37109375 54.703125 C-96.39357607 53.55148745 -94.41570091 52.40046355 -92.4375 51.25 C-85.17430918 47.02194713 -77.92130528 42.77811051 -70.6875 38.5 C-65.44984555 35.40527341 -60.16620163 32.43490756 -54.8046875 29.55859375 C-50.64986343 27.24971519 -46.60013226 24.77255436 -42.53540039 22.30957031 C-39.0041182 20.17784626 -35.45500138 18.12597405 -31.8125 16.1875 C-25.33285949 12.72644771 -19.08466338 8.87481302 -12.81567383 5.04956055 C-11.97931396 4.54207275 -11.1429541 4.03458496 -10.28125 3.51171875 C-9.15299805 2.82275513 -9.15299805 2.82275513 -8.00195312 2.11987305 C-5.21092518 0.55859924 -3.20958836 0 0 0 Z " fill="#EE5AA0" transform="translate(273,218)"/>
<path d="M0 0 C3.26209434 1.62992771 4.52998303 5.20514314 6.15356445 8.32617188 C6.94801116 9.79813444 7.74358273 11.26949045 8.5402832 12.74023438 C8.92361816 13.45598633 9.30695313 14.17173828 9.7019043 14.90917969 C11.04946143 17.38672918 12.49178147 19.79719592 13.96606445 22.20117188 C15.93927529 25.44672631 17.79496304 28.72933809 19.59106445 32.07617188 C22.0270039 36.59640597 24.61843204 40.99868138 27.27856445 45.38867188 C30.31442694 50.40420085 33.21750662 55.45785952 35.9934082 60.62304688 C42.35911829 72.26797823 48.99500658 83.75997927 56.02856445 95.01367188 C58.34426104 98.81803055 60.46320644 102.71394756 62.55200195 106.64648438 C63.83068285 109.06145124 63.83068285 109.06145124 65.77856445 111.88867188 C65.67700195 113.89648438 65.67700195 113.89648438 64.77856445 115.88867188 C62.88012695 117.38085938 62.88012695 117.38085938 60.40356445 118.76367188 C59.49219727 119.28058594 58.58083008 119.7975 57.6418457 120.33007812 C54.04540783 122.28775713 50.44652935 124.2406304 46.84106445 126.18164062 C43.20456372 128.20861871 39.64972248 130.35392245 36.09106445 132.51367188 C22.24317195 140.88867188 22.24317195 140.88867188 17.77856445 140.88867188 C16.86977539 139.23544922 16.86977539 139.23544922 15.94262695 137.54882812 C9.05107317 125.05406904 1.92093095 112.71877698 -5.47143555 100.51367188 C-8.01613398 96.29633459 -10.36053666 91.98520658 -12.69799805 87.65039062 C-15.08477158 83.3235986 -17.64321407 79.10342401 -20.22143555 74.88867188 C-20.9484668 75.324375 -21.67549805 75.76007813 -22.42456055 76.20898438 C-28.58286555 79.8565958 -34.7772599 83.25006825 -41.23706055 86.33398438 C-44.1767712 87.86540432 -46.92235014 89.55808324 -49.71850586 91.33203125 C-54.7500148 94.46126467 -59.8819598 97.42627434 -64.99536133 100.41918945 C-66.98194876 101.58232731 -68.96698209 102.74808567 -70.9519043 103.9140625 C-72.22394777 104.6596621 -73.49608002 105.40511024 -74.76831055 106.15039062 C-75.35690857 106.49623703 -75.94550659 106.84208344 -76.55194092 107.19841003 C-78.10283311 108.1048248 -79.66179509 108.99739416 -81.22143555 109.88867188 C-81.93203125 110.29577393 -82.64262695 110.70287598 -83.37475586 111.12231445 C-85.22143555 111.88867188 -85.22143555 111.88867188 -89.22143555 111.88867188 C-89.56537354 111.24325439 -89.90931152 110.59783691 -90.26367188 109.93286133 C-94.261055 102.5095273 -98.5336054 95.28183429 -102.90893555 88.07617188 C-104.22745073 85.90427368 -105.54392763 83.7311365 -106.8581543 81.55664062 C-107.43267334 80.61071045 -108.00719238 79.66478027 -108.59912109 78.69018555 C-113.65505116 69.95929051 -113.65505116 69.95929051 -113.22143555 63.88867188 C-112.60324951 63.54199463 -111.98506348 63.19531738 -111.34814453 62.83813477 C-100.4022111 56.69317409 -89.46949466 50.55059106 -78.76831055 43.98632812 C-75.91970601 42.2665589 -73.0101765 40.68147445 -70.08081055 39.10351562 C-63.84273644 35.72358467 -57.78441936 32.07109762 -51.72143555 28.38867188 C-44.91483225 24.25459993 -38.08782828 20.23356639 -31.07446289 16.46044922 C-27.87670503 14.69875444 -24.73882423 12.85151182 -21.6003418 10.98632812 C-20.48079102 10.32439453 -19.36124023 9.66246094 -18.20776367 8.98046875 C-16.47836236 7.95545565 -14.749084 6.93016407 -13.02734375 5.89233398 C-11.32928404 4.87065423 -9.62118824 3.86571289 -7.9128418 2.86132812 C-6.91454346 2.26586182 -5.91624512 1.67039551 -4.88769531 1.05688477 C-2.22143555 -0.11132812 -2.22143555 -0.11132812 0 0 Z " fill="#EE5AA0" transform="translate(113.221435546875,99.111328125)"/>
<path d="M0 0 C5.12412838 6.22372674 8.97735662 13.06517749 12.8046875 20.140625 C15.89981731 25.83271885 19.06191736 31.48454609 22.25 37.125 C22.80703613 38.1154834 23.36407227 39.1059668 23.93798828 40.12646484 C26.59130088 44.82638054 29.27572589 49.49516097 32.1015625 54.09375 C32.57174805 54.86444824 33.04193359 55.63514648 33.52636719 56.42919922 C34.40231395 57.85538771 35.2903734 59.27423262 36.19238281 60.68408203 C39.04014962 65.33212037 39.04014962 65.33212037 38.84692383 68.54638672 C37.79414753 71.59637281 36.89121192 72.1501323 34.08203125 73.65625 C33.24978027 74.11547852 32.4175293 74.57470703 31.56005859 75.04785156 C30.65336426 75.52706055 29.74666992 76.00626953 28.8125 76.5 C26.9037775 77.54473951 24.99626572 78.59169341 23.08984375 79.640625 C22.09452637 80.18396484 21.09920898 80.72730469 20.07373047 81.28710938 C13.96332964 84.69223822 7.99723471 88.34934663 2.02270508 91.98632812 C1.14638428 92.51162109 0.27006348 93.03691406 -0.6328125 93.578125 C-1.40512207 94.04637695 -2.17743164 94.51462891 -2.97314453 94.99707031 C-5 96 -5 96 -8 96 C-8.33209473 95.41621582 -8.66418945 94.83243164 -9.00634766 94.23095703 C-10.54470632 91.52829085 -12.08484507 88.82664293 -13.625 86.125 C-14.40810547 84.74828125 -14.40810547 84.74828125 -15.20703125 83.34375 C-18.72380522 77.17854131 -22.33138273 71.07581547 -26 65 C-44.45917585 34.26867044 -44.45917585 34.26867044 -46 27 C-39.48107486 22.38242803 -32.61299442 18.46571794 -25.640625 14.58984375 C-20.2348348 11.58385355 -14.86791485 8.51046311 -9.5 5.4375 C-8.56124023 4.90044434 -7.62248047 4.36338867 -6.65527344 3.81005859 C-4.43657333 2.54051955 -2.21814196 1.27051392 0 0 Z " fill="#00BCF1" transform="translate(298,263)"/>
<path d="M0 0 C4.21191565 4.76129595 7.06298729 10.22043952 10.125 15.75 C11.28528305 17.82487641 12.44675186 19.89909016 13.609375 21.97265625 C14.18236328 22.99504395 14.75535156 24.01743164 15.34570312 25.07080078 C18.78350277 31.15797908 22.35745594 37.16477604 25.92285156 43.17773438 C28.10189027 46.86412261 30.24849564 50.56941984 32.390625 54.27734375 C33.4935826 56.14326959 34.63104913 57.98910092 35.796875 59.81640625 C36.35890625 60.70199219 36.9209375 61.58757812 37.5 62.5 C38.0053125 63.2734375 38.510625 64.046875 39.03125 64.84375 C40 67 40 67 39.9296875 69.1015625 C38.64877939 71.71719838 37.15678871 72.46135141 34.625 73.875 C33.71363281 74.39191406 32.80226563 74.90882813 31.86328125 75.44140625 C28.26684338 77.39908526 24.66796489 79.35195853 21.0625 81.29296875 C17.42599927 83.31994684 13.87115803 85.46525057 10.3125 87.625 C-3.5353925 96 -3.5353925 96 -8 96 C-8.60585937 94.89785156 -9.21171875 93.79570312 -9.8359375 92.66015625 C-16.72749129 80.16539717 -23.8576335 67.83010511 -31.25 55.625 C-33.78254995 51.42068252 -36.15316023 47.14162031 -38.47265625 42.81640625 C-39.53810453 40.85173052 -40.63159973 38.90211859 -41.74609375 36.96484375 C-42.30425781 35.98644531 -42.86242187 35.00804687 -43.4375 34 C-43.95183594 33.113125 -44.46617188 32.22625 -44.99609375 31.3125 C-46 29 -46 29 -45 26 C-43.50390625 24.90014648 -43.50390625 24.90014648 -41.5625 23.87109375 C-40.840625 23.48083008 -40.11875 23.09056641 -39.375 22.68847656 C-38.59125 22.2756543 -37.8075 21.86283203 -37 21.4375 C-35.35315663 20.54743922 -33.70734771 19.65546217 -32.0625 18.76171875 C-31.22074219 18.30587402 -30.37898438 17.8500293 -29.51171875 17.38037109 C-25.62913419 15.2466101 -21.81176076 13.0072414 -18 10.75 C-17.29818604 10.33500244 -16.59637207 9.92000488 -15.87329102 9.49243164 C-10.56966939 6.34928828 -5.27616614 3.18903408 0 0 Z " fill="#00BCF1" transform="translate(139,144)"/>
<path d="M0 0 C2.50759872 3.22183737 4.6716892 6.58737714 6.8125 10.0625 C7.45832031 11.10535156 8.10414063 12.14820312 8.76953125 13.22265625 C11.08918394 17.07737322 13.2086954 21.03600396 15.35131836 24.9909668 C18.27782852 30.3321837 21.32862389 35.6015163 24.375 40.875 C25.36028687 42.58538452 25.36028687 42.58538452 26.36547852 44.33032227 C30.3605529 51.24204301 34.43662265 58.07733475 38.77734375 64.77734375 C40 67 40 67 40 70 C38.99582031 70.556875 37.99164063 71.11375 36.95703125 71.6875 C29.20271422 76.0075308 21.5754923 80.4511371 14.04296875 85.1484375 C10.2436935 87.46019163 6.36301029 89.58736191 2.4375 91.67578125 C-0.06968786 92.98727016 -0.06968786 92.98727016 -2.5625 94.73046875 C-5 96 -5 96 -7.0703125 96.0859375 C-10.09280638 94.38501989 -11.309569 91.59710641 -12.875 88.625 C-13.22377197 87.98941162 -13.57254395 87.35382324 -13.93188477 86.69897461 C-14.96758827 84.80600607 -15.98588698 82.90460376 -17 81 C-17.97757277 79.18663983 -18.95658338 77.37405353 -19.9375 75.5625 C-20.41058594 74.68722656 -20.88367188 73.81195313 -21.37109375 72.91015625 C-23.33958552 69.39330645 -25.41268253 65.94722335 -27.5 62.5 C-30.62048473 57.34649173 -33.61677147 52.15742994 -36.4453125 46.8359375 C-37.64898255 44.64029815 -38.88925562 42.49561341 -40.1796875 40.3515625 C-40.55343506 39.7232251 -40.92718262 39.0948877 -41.31225586 38.44750977 C-42.04777906 37.21536078 -42.79302905 35.9889527 -43.54907227 34.76928711 C-46.02675364 30.58988504 -46.02675364 30.58988504 -45.90991211 28.01367188 C-44.57522175 25.05994875 -42.69132251 24.28214928 -39.8828125 22.71484375 C-38.27188721 21.80230835 -38.27188721 21.80230835 -36.62841797 20.87133789 C-35.46071856 20.22653221 -34.29291042 19.58192341 -33.125 18.9375 C-31.94473213 18.27402531 -30.76521039 17.60922164 -29.58642578 16.94311523 C-27.20587082 15.59941525 -24.82205197 14.2618123 -22.43554688 12.92871094 C-17.55384093 10.18812843 -12.71322267 7.37889859 -7.875 4.5625 C-6.33092018 3.66763907 -4.7866703 2.77307147 -3.2421875 1.87890625 C-2.17226563 1.25886719 -1.10234375 0.63882813 0 0 Z " fill="#00BCF1" transform="translate(297,53)"/>
<path d="M0 0 C3.30730875 1.58077092 4.56290441 5.17448226 6.19189453 8.3059082 C6.98634124 9.77787077 7.78191281 11.24922677 8.57861328 12.7199707 C8.96194824 13.43572266 9.3452832 14.15147461 9.74023438 14.88891602 C11.08779151 17.36646551 12.53011154 19.77693225 14.00439453 22.1809082 C16.62286925 26.48684441 19.0411562 30.88445545 21.42236328 35.32543945 C22.79531071 37.92173362 22.79531071 37.92173362 24.55517578 40.44262695 C25.81689453 42.8684082 25.81689453 42.8684082 25.70629883 44.82617188 C24.42167834 47.77589748 22.65933464 48.45912578 19.84814453 49.9699707 C18.80932129 50.53820557 17.77049805 51.10644043 16.70019531 51.69189453 C15.02546143 52.5836438 15.02546143 52.5836438 13.31689453 53.4934082 C11.03217432 54.73791335 8.74832341 55.98401567 6.46533203 57.23168945 C5.33708008 57.8447998 4.20882812 58.45791016 3.04638672 59.08959961 C-2.08852315 61.9179148 -7.12003077 64.91241854 -12.14208984 67.93530273 C-14.80779494 69.52804107 -17.2257719 70.88263035 -20.18310547 71.8684082 C-31.2688099 53.95549605 -31.2688099 53.95549605 -35.63623047 45.74731445 C-37.72395893 41.86181982 -39.89126313 38.02270201 -42.05810547 34.1809082 C-42.46432129 33.46016113 -42.87053711 32.73941406 -43.2890625 31.99682617 C-44.25313764 30.28701177 -45.21803253 28.57765962 -46.18310547 26.8684082 C-43.03145569 23.35790721 -39.54428049 21.19693967 -35.43310547 18.9934082 C-30.20228853 16.14057612 -25.03979626 13.20486486 -19.93310547 10.1340332 C-18.85899414 9.49191895 -17.78488281 8.84980469 -16.67822266 8.18823242 C-14.53260883 6.9023492 -12.39249874 5.60723291 -10.25830078 4.30249023 C-9.26926758 3.71322754 -8.28023437 3.12396484 -7.26123047 2.5168457 C-6.37854492 1.98236816 -5.49585938 1.44789062 -4.58642578 0.8972168 C-2.18310547 -0.1315918 -2.18310547 -0.1315918 0 0 Z " fill="#223F99" transform="translate(113.18310546875,99.131591796875)"/>
<path d="M0 0 C2.95504403 1.25280384 3.51786286 2.96500345 4.9296875 5.80859375 C6.86550549 9.57808858 8.83939253 13.25819121 11.0546875 16.87109375 C13.67911106 21.19729197 16.13248876 25.59593896 18.53125 30.05078125 C19.59586363 32.02168135 20.67522224 33.98465609 21.765625 35.94140625 C22.31476563 36.92882813 22.86390625 37.91625 23.4296875 38.93359375 C23.93242187 39.83207031 24.43515625 40.73054688 24.953125 41.65625 C26.0546875 43.87109375 26.0546875 43.87109375 26.0546875 45.87109375 C25.47315918 46.19682373 24.89163086 46.52255371 24.29248047 46.8581543 C9.76469405 55.00605094 -4.64080332 63.3373575 -18.9453125 71.87109375 C-22.87210941 68.43403341 -24.97289542 64.53336884 -27.3828125 59.99609375 C-31.96175344 51.53255223 -36.82349299 43.26311711 -41.82983398 35.04541016 C-42.36552002 34.1538623 -42.90120605 33.26231445 -43.453125 32.34375 C-43.93410645 31.55234619 -44.41508789 30.76094238 -44.91064453 29.94555664 C-45.9453125 27.87109375 -45.9453125 27.87109375 -45.9453125 24.87109375 C-45.39705811 24.57452881 -44.84880371 24.27796387 -44.28393555 23.97241211 C-30.62774746 16.58163004 -30.62774746 16.58163004 -17.4140625 8.4375 C-3.72683539 -0.24695897 -3.72683539 -0.24695897 0 0 Z " fill="#223F99" transform="translate(270.9453125,8.12890625)"/>
<path d="M0 0 C1.39453125 1.80078125 1.39453125 1.80078125 2.8125 4.3125 C3.27269531 5.11300781 3.73289062 5.91351563 4.20703125 6.73828125 C5.24059449 8.61851068 6.27148302 10.50022691 7.29492188 12.38598633 C9.96116281 17.29601909 12.65837523 22.18350023 15.4296875 27.03515625 C15.996875 28.02837891 16.5640625 29.02160156 17.1484375 30.04492188 C18.3204147 32.09323045 19.49498335 34.14005803 20.671875 36.18554688 C21.23132813 37.16716797 21.79078125 38.14878906 22.3671875 39.16015625 C22.87362793 40.04324463 23.38006836 40.92633301 23.90185547 41.83618164 C25 44 25 44 25 46 C24.01902344 46.54527344 23.03804688 47.09054687 22.02734375 47.65234375 C15.01776685 51.56387155 8.05224665 55.5261823 1.1875 59.6875 C-6.05933405 64.07768249 -13.41367549 68.22129073 -21 72 C-26.67944635 62.91021854 -32.09429787 53.70070516 -37.375 44.375 C-38.44107334 42.49548421 -39.50782494 40.61636087 -40.57583618 38.73794556 C-41.52906594 37.06098808 -42.48017668 35.38282661 -43.43115234 33.70458984 C-44.55660037 31.7643917 -45.75581326 29.86628011 -47 28 C-47 27.01 -47 26.02 -47 25 C-45.19921875 23.60546875 -45.19921875 23.60546875 -42.6875 22.1875 C-41.76066406 21.65769531 -40.83382812 21.12789062 -39.87890625 20.58203125 C-37.30146988 19.16566527 -34.7157276 17.7668489 -32.125 16.375 C-25.54732951 12.83973906 -19.18969417 8.93891848 -12.81689453 5.05029297 C-11.56175049 4.28869873 -11.56175049 4.28869873 -10.28125 3.51171875 C-9.15299805 2.82275513 -9.15299805 2.82275513 -8.00195312 2.11987305 C-5.21092518 0.55859924 -3.20958836 0 0 0 Z " fill="#223F99" transform="translate(273,218)"/>
</svg>
