<?xml version="1.0" encoding="UTF-8"?>
<svg version="1.1" xmlns="http://www.w3.org/2000/svg" width="405" height="402">
<path d="M0 0 C3.04476578 2.60985203 4.92053595 5.30263758 6.77734375 8.83203125 C7.28418701 9.78392334 7.79103027 10.73581543 8.31323242 11.71655273 C8.84924072 12.73821533 9.38524902 13.75987793 9.9375 14.8125 C11.09722154 16.98790595 12.25872692 19.16236173 13.421875 21.3359375 C14.01419922 22.44420898 14.60652344 23.55248047 15.21679688 24.69433594 C21.88109929 37.04847816 28.89176897 49.22332479 36.05151367 61.29638672 C38.60114525 65.60095951 41.11252001 69.92568952 43.6015625 74.265625 C44.239729 75.37800537 44.87789551 76.49038574 45.53540039 77.63647461 C46.83770125 79.90753066 48.1389829 82.17917148 49.43920898 84.45141602 C53.48084318 91.47838932 57.62825805 98.41277921 62.20703125 105.10571289 C64.72176759 108.92930446 65.59095374 111.44728946 65 116 C63.09838867 117.79174805 63.09838867 117.79174805 60.41796875 119.26171875 C59.43159424 119.81843262 58.44521973 120.37514648 57.42895508 120.94873047 C56.3592749 121.52252441 55.28959473 122.09631836 54.1875 122.6875 C51.9867472 123.91234373 49.78622944 125.13760984 47.5859375 126.36328125 C46.47959961 126.96994629 45.37326172 127.57661133 44.23339844 128.20166016 C41.23790228 129.86768437 38.28927062 131.59000399 35.3515625 133.35546875 C34.49667236 133.86698486 33.64178223 134.37850098 32.76098633 134.90551758 C31.1634978 135.86426556 29.56940213 136.82869635 27.97924805 137.79956055 C25.08322363 139.50965274 22.56952227 140.86029035 19.29296875 141.6640625 C14.10387185 140.16125761 11.71115975 134.63011505 9.23828125 130.19921875 C8.25722995 128.36506485 7.28223552 126.52766173 6.3125 124.6875 C1.5121537 115.73202716 -3.49427578 106.94323267 -8.69091797 98.21386719 C-11.19887465 93.97251113 -13.65971132 89.70374945 -16.125 85.4375 C-16.61105713 84.59678955 -17.09711426 83.7560791 -17.59790039 82.88989258 C-18.73244864 80.92689181 -19.86650936 78.96361159 -21 77 C-25.34117871 78.31457944 -29.05048034 80.00308358 -32.97265625 82.2734375 C-34.10993164 82.92787842 -35.24720703 83.58231934 -36.41894531 84.2565918 C-37.63352807 84.96261687 -38.84804494 85.66875529 -40.0625 86.375 C-41.31447169 87.09794394 -42.56675347 87.82035114 -43.81933594 88.54223633 C-46.34391032 89.99776495 -48.86701001 91.45580254 -51.38916016 92.91552734 C-54.66188825 94.80757836 -57.94407295 96.68255006 -61.23046875 98.55078125 C-62.16947021 99.08461426 -63.10847168 99.61844727 -64.07592773 100.16845703 C-65.80029673 101.14800819 -67.52504095 102.12689925 -69.25024414 103.10498047 C-70.02875732 103.5485791 -70.80727051 103.99217773 -71.609375 104.44921875 C-72.34865234 104.86864746 -73.08792969 105.28807617 -73.84960938 105.72021484 C-75.29586768 106.58094214 -76.71473077 107.48926208 -78.10351562 108.43994141 C-82.69319975 111.57637224 -85.4243119 112.58080084 -91 112 C-91.60585937 110.89785156 -92.21171875 109.79570313 -92.8359375 108.66015625 C-98.01072323 99.27864277 -103.30547265 89.98322254 -108.7734375 80.76953125 C-109.14307617 80.13869629 -109.51271484 79.50786133 -109.89355469 78.85791016 C-110.63342289 77.61554542 -111.39484638 76.38577631 -112.17675781 75.16943359 C-114.57629585 71.32364194 -115.94348888 68.52748022 -115 64 C-112.82421875 62.05078125 -112.82421875 62.05078125 -109.6875 60.3125 C-109.11354492 59.98491699 -108.53958984 59.65733398 -107.94824219 59.31982422 C-106.67100063 58.59260865 -105.38825178 57.87500773 -104.10107422 57.16552734 C-101.09306398 55.49689606 -98.12724678 53.75798454 -95.15576172 52.02539062 C-92.70576859 50.59925296 -90.25000291 49.18349856 -87.79296875 47.76953125 C-83.53181758 45.31316274 -79.29469781 42.81829633 -75.0625 40.3125 C-67.49951685 35.84479181 -59.87841107 31.47968826 -52.25 27.125 C-51.64818909 26.78136414 -51.04637817 26.43772827 -50.42633057 26.0836792 C-44.26165106 22.56428279 -38.09335827 19.05136245 -31.91796875 15.55078125 C-30.09103152 14.51322209 -28.26420303 13.47547144 -26.4375 12.4375 C-25.15685669 11.71216064 -25.15685669 11.71216064 -23.8503418 10.97216797 C-18.47881594 7.9096013 -13.29713534 4.69339567 -8.25390625 1.109375 C-5.25332781 -0.36751283 -3.30346153 -0.47005777 0 0 Z " fill="#FBFBFB" transform="translate(272,8)"/>
<path d="M0 0 C4.12352536 4.07904974 6.72921649 8.78859981 9.4375 13.875 C13.38915214 21.14371588 17.49010819 28.30802898 21.6875 35.4375 C26.86027677 44.24202972 31.87973686 53.12223607 36.8125 62.0625 C41.6780286 70.87423814 46.6432713 79.58361286 51.89355469 88.17089844 C54.55464581 92.57003671 57.1333958 97.0188344 59.7277832 101.45751953 C60.12570068 102.13669434 60.52361816 102.81586914 60.93359375 103.515625 C61.4603772 104.41716309 61.4603772 104.41716309 61.99780273 105.33691406 C62.95196574 106.92029004 63.97455352 108.46183029 65 110 C65.6875 112.8125 65.6875 112.8125 65 116 C59.99850023 120.85671951 52.94645198 123.68069024 46.81469727 126.88696289 C39.50273389 130.7285623 32.30105091 134.93671133 25.5703125 139.73046875 C22.26610044 141.36248839 19.64244366 141.08654732 16 141 C12.921875 135.61328125 12.921875 135.61328125 11.94416809 133.90219116 C10.14530098 130.75403299 8.3461848 127.60601757 6.54663086 124.45825195 C3.22013316 118.63904194 -0.10493194 112.81907673 -3.41796875 106.9921875 C-9.15137064 96.91524442 -14.97459031 86.90540836 -21 77 C-26.87360199 78.61596628 -31.82102876 81.54759054 -37.0625 84.5625 C-38.53565674 85.40240479 -38.53565674 85.40240479 -40.03857422 86.25927734 C-61.06977899 98.1043439 -61.06977899 98.1043439 -81.63818359 110.71044922 C-84.82949754 112.45290531 -87.42700149 112.21017638 -91 112 C-91.58265625 110.93265625 -92.1653125 109.8653125 -92.765625 108.765625 C-98.89426922 97.60468152 -105.32406395 86.65379428 -111.94360352 75.77734375 C-113.76449458 72.71376924 -114.11334745 70.93432173 -114.0625 67.375 C-114.05347656 66.55773437 -114.04445313 65.74046875 -114.03515625 64.8984375 C-114.02355469 64.27195312 -114.01195313 63.64546875 -114 63 C-112.99755249 62.4423999 -112.99755249 62.4423999 -111.97485352 61.87353516 C-95.19094225 52.53493057 -95.19094225 52.53493057 -78.58374023 42.88769531 C-72.29721419 39.15891885 -65.96219169 35.51685962 -59.625 31.875 C-50.87824666 26.844154 -42.16992594 21.75511103 -33.49609375 16.59991455 C-30.6680805 14.91969429 -27.83767865 13.24350334 -25.0078125 11.56640625 C-21.45437241 9.45990572 -17.90707282 7.34402039 -14.3671875 5.21484375 C-13.12014067 4.47597314 -11.8727844 3.73762434 -10.625 3 C-9.62726563 2.401875 -8.62953125 1.80375 -7.6015625 1.1875 C-4.6434467 -0.16275105 -3.18806545 -0.72870067 0 0 Z " fill="#FBFBFB" transform="translate(114,99)"/>
<path d="M0 0 C1.86219518 2.29616762 3.08799091 4.22677686 4.4375 6.8125 C4.84726074 7.55081055 5.25702148 8.28912109 5.67919922 9.04980469 C6.60928977 10.73108312 7.52882076 12.41822952 8.43994141 14.10986328 C10.48867773 17.90531565 12.58239328 21.67520818 14.67851257 25.44465637 C16.28354337 28.33117774 17.88281147 31.22029533 19.47045898 34.11645508 C23.15358964 40.81076385 27.02792371 47.34168683 31.0625 53.82958984 C34.0891475 58.78221641 36.88563062 63.85544048 39.6875 68.9375 C45.41527922 79.24984844 51.3208154 89.44271821 57.35546875 99.578125 C57.81928955 100.35744385 58.28311035 101.1367627 58.76098633 101.93969727 C59.76617661 103.6111851 60.79723619 105.26709666 61.8359375 106.91796875 C63.45687286 109.81715851 63.4860999 111.73618639 63 115 C59.5855352 119.37564121 54.68560815 121.52764797 49.875 124.0625 C42.00264205 128.2727761 34.36693296 132.72856499 26.91357422 137.64672852 C22.77637278 140.28278304 20.07997227 141.6131001 15 141 C14.72551025 140.51047852 14.45102051 140.02095703 14.16821289 139.51660156 C9.12841213 130.55466875 4.03188517 121.63335071 -1.3359375 112.86328125 C-1.7062056 112.25779449 -2.07647369 111.65230774 -2.45796204 111.0284729 C-4.27886677 108.05479557 -6.10770161 105.08634288 -7.94702148 102.12402344 C-21 80.89851803 -21 80.89851803 -21 76 C-26.19596629 77.8259144 -30.68299987 79.81892001 -35.375 82.75 C-43.66708564 87.85845846 -52.10951077 92.69457311 -60.5637207 97.52880859 C-67.26105623 101.3721909 -73.82295795 105.30788495 -80.19140625 109.6796875 C-84.04744239 111.4923999 -87.78303633 111.74168853 -92 112 C-92.40726318 111.26064209 -92.81452637 110.52128418 -93.23413086 109.75952148 C-94.78692805 106.94372125 -96.34185008 104.12910969 -97.89865112 101.31552124 C-98.58956481 100.06649396 -99.27993621 98.81716656 -99.96975708 97.5675354 C-104.59538888 89.19365287 -109.35013838 80.94647177 -114.55859375 72.91796875 C-116.2942939 69.4042343 -117.00714522 67.83316463 -116 64 C-113.28494261 61.5190203 -110.1937883 59.79882699 -107 58 C-106.13375 57.49533203 -105.2675 56.99066406 -104.375 56.47070312 C-101.59772766 54.87013847 -98.80196981 53.30688611 -96 51.75 C-89.08577943 47.87638368 -82.19168278 43.98056646 -75.375 39.9375 C-69.1183558 36.22885148 -62.82076939 32.59826589 -56.5 29 C-46.51370586 23.31202833 -36.60187309 17.5052349 -26.71533203 11.64599609 C-25.16517897 10.72756685 -23.61456458 9.80991578 -22.06347656 8.89306641 C-20.60993435 8.03386846 -19.15738636 7.17298528 -17.70605469 6.31005859 C-15.81248822 5.19121705 -13.90950429 4.09136836 -12 3 C-10.97261719 2.41089844 -9.94523437 1.82179687 -8.88671875 1.21484375 C-5.50261837 -0.20931757 -3.6162875 -0.7641415 0 0 Z " fill="#FBFBFB" transform="translate(274,218)"/>
</svg>
