<?xml version="1.0" encoding="UTF-8"?>
<svg version="1.1" xmlns="http://www.w3.org/2000/svg" width="405" height="402">
<path d="M0 0 C3.98105666 2.87602071 5.84427427 7.14245891 8 11.4375 C11.52828845 18.28362285 15.22378047 25.01046914 19.0625 31.6875 C19.58021973 32.58807129 20.09793945 33.48864258 20.63134766 34.41650391 C21.63679848 36.16318318 22.64295535 37.90945627 23.64990234 39.65527344 C24.78934596 41.63415525 25.92297817 43.616034 27.05078125 45.6015625 C31.91721534 54.16732015 36.88470914 62.67289357 41.85791016 71.17700195 C45.64134206 77.65160985 49.36435674 84.15503283 53.046875 90.6875 C54.54849891 93.23425416 56.09087161 95.71193986 57.703125 98.1875 C58.39873535 99.26354492 58.39873535 99.26354492 59.10839844 100.36132812 C60.01086681 101.74827951 60.92495408 103.1277661 61.85253906 104.49804688 C62.26213867 105.12775391 62.67173828 105.75746094 63.09375 106.40625 C63.46177734 106.95603516 63.82980469 107.50582031 64.20898438 108.07226562 C65.37313167 110.90933571 65.41240651 112.97014052 65 116 C63.09838867 117.79174805 63.09838867 117.79174805 60.41796875 119.26171875 C59.43159424 119.81843262 58.44521973 120.37514648 57.42895508 120.94873047 C56.3592749 121.52252441 55.28959473 122.09631836 54.1875 122.6875 C51.9867472 123.91234373 49.78622944 125.13760984 47.5859375 126.36328125 C46.47959961 126.96994629 45.37326172 127.57661133 44.23339844 128.20166016 C41.23790228 129.86768437 38.28927062 131.59000399 35.3515625 133.35546875 C34.49667236 133.86698486 33.64178223 134.37850098 32.76098633 134.90551758 C31.1634978 135.86426556 29.56940213 136.82869635 27.97924805 137.79956055 C25.08322363 139.50965274 22.56952227 140.86029035 19.29296875 141.6640625 C14.10387185 140.16125761 11.71115975 134.63011505 9.23828125 130.19921875 C8.25722995 128.36506485 7.28223552 126.52766173 6.3125 124.6875 C1.5121537 115.73202716 -3.49427578 106.94323267 -8.69091797 98.21386719 C-11.19887465 93.97251113 -13.65971132 89.70374945 -16.125 85.4375 C-16.61105713 84.59678955 -17.09711426 83.7560791 -17.59790039 82.88989258 C-18.73244864 80.92689181 -19.86650936 78.96361159 -21 77 C-25.01076712 78.24050383 -28.55666319 79.70416953 -32.2109375 81.765625 C-33.19715088 82.31935791 -34.18336426 82.87309082 -35.19946289 83.44360352 C-36.24739014 84.03971436 -37.29531738 84.6358252 -38.375 85.25 C-39.46611084 85.86609131 -40.55722168 86.48218262 -41.68139648 87.11694336 C-51.44772219 92.64831987 -61.16202279 98.27004729 -70.84765625 103.94140625 C-71.72953613 104.45590332 -72.61141602 104.97040039 -73.52001953 105.50048828 C-75.10985055 106.46177418 -76.67676406 107.46268716 -78.21044922 108.51123047 C-82.75871065 111.61940913 -85.47176114 112.57585821 -91 112 C-91.60585937 110.89785156 -92.21171875 109.79570313 -92.8359375 108.66015625 C-98.01072323 99.27864277 -103.30547265 89.98322254 -108.7734375 80.76953125 C-109.14178711 80.13740723 -109.51013672 79.5052832 -109.88964844 78.85400391 C-110.63048282 77.61699944 -111.40521621 76.39968574 -112.21191406 75.20458984 C-114.14093612 72.23336693 -115.00195202 69.98279191 -115.40234375 66.453125 C-113.16282002 60.93853174 -108.69964045 59.36568505 -103.5625 56.75 C-101.43732837 55.61212314 -99.31364336 54.47146567 -97.19140625 53.328125 C-96.1358252 52.76673828 -95.08024414 52.20535156 -93.99267578 51.62695312 C-89.89747639 49.40061859 -85.94718947 46.97644463 -82 44.5 C-72.45219317 38.57508067 -62.6597739 33.10135716 -52.86083984 27.60546875 C-48.40073393 25.10251121 -43.94664716 22.58929144 -39.5 20.0625 C-38.23663818 19.34670776 -38.23663818 19.34670776 -36.94775391 18.61645508 C-32.16451957 15.88402 -27.45494399 13.05921375 -22.78515625 10.13671875 C-21.74746094 9.49017334 -20.70976562 8.84362793 -19.640625 8.17749023 C-17.63171859 6.91953369 -15.63000548 5.64999456 -13.63671875 4.36743164 C-12.72664063 3.79758545 -11.8165625 3.22773926 -10.87890625 2.640625 C-10.0804126 2.13047852 -9.28191895 1.62033203 -8.45922852 1.09472656 C-5.44514081 -0.24699579 -3.26671097 -0.30148615 0 0 Z " fill="#030303" transform="translate(272,8)"/>
<path d="M0 0 C4.12352536 4.07904974 6.72921649 8.78859981 9.4375 13.875 C13.38915214 21.14371588 17.49010819 28.30802898 21.6875 35.4375 C26.86027677 44.24202972 31.87973686 53.12223607 36.8125 62.0625 C41.6780286 70.87423814 46.6432713 79.58361286 51.89355469 88.17089844 C54.55464581 92.57003671 57.1333958 97.0188344 59.7277832 101.45751953 C60.12570068 102.13669434 60.52361816 102.81586914 60.93359375 103.515625 C61.4603772 104.41716309 61.4603772 104.41716309 61.99780273 105.33691406 C62.95196574 106.92029004 63.97455352 108.46183029 65 110 C65.6875 112.8125 65.6875 112.8125 65 116 C60.03615806 120.82015178 53.04485243 123.63360079 46.95751953 126.81445312 C41.48674596 129.68589139 36.19316486 132.80719349 30.92333984 136.03051758 C29.28786119 137.02962758 27.64429437 138.01546598 26 139 C25.32324219 139.41507813 24.64648438 139.83015625 23.94921875 140.2578125 C21.27730035 141.27517622 18.83598805 141.04570682 16 141 C12.921875 135.61328125 12.921875 135.61328125 11.94416809 133.90219116 C10.14530098 130.75403299 8.3461848 127.60601757 6.54663086 124.45825195 C3.22013316 118.63904194 -0.10493194 112.81907673 -3.41796875 106.9921875 C-9.15137064 96.91524442 -14.97459031 86.90540836 -21 77 C-26.87360199 78.61596628 -31.82102876 81.54759054 -37.0625 84.5625 C-38.53565674 85.40240479 -38.53565674 85.40240479 -40.03857422 86.25927734 C-61.06977899 98.1043439 -61.06977899 98.1043439 -81.63818359 110.71044922 C-84.82949754 112.45290531 -87.42700149 112.21017638 -91 112 C-91.58265625 110.93265625 -92.1653125 109.8653125 -92.765625 108.765625 C-98.89426922 97.60468152 -105.32406395 86.65379428 -111.94360352 75.77734375 C-113.76449458 72.71376924 -114.11334745 70.93432173 -114.0625 67.375 C-114.05347656 66.55773437 -114.04445313 65.74046875 -114.03515625 64.8984375 C-114.02355469 64.27195312 -114.01195313 63.64546875 -114 63 C-113.47269287 62.71390869 -112.94538574 62.42781738 -112.40209961 62.13305664 C-103.25770612 57.16243624 -94.14867116 52.17382221 -85.26245117 46.75244141 C-78.83190744 42.85234641 -72.2880476 39.15344578 -65.75 35.4375 C-56.0906013 29.94482743 -46.48815309 24.36716718 -36.9375 18.6875 C-35.2671167 17.69641235 -35.2671167 17.69641235 -33.56298828 16.68530273 C-28.45473284 13.65329374 -23.35298499 10.61122658 -18.26171875 7.55078125 C-16.54975884 6.53338342 -14.83753761 5.51642512 -13.125 4.5 C-12.36437256 4.03682373 -11.60374512 3.57364746 -10.82006836 3.09643555 C-3.7546271 -1.06911416 -3.7546271 -1.06911416 0 0 Z " fill="#030303" transform="translate(114,99)"/>
<path d="M0 0 C3.79954349 6.5961019 7.566523 13.20807639 11.26171875 19.86328125 C16.93319207 30.07050863 22.64977809 40.20663437 28.82006836 50.12109375 C33.33289412 57.42687089 37.47690703 64.92979165 41.64379883 72.43652344 C46.7290932 81.57563785 52.00519326 90.59212129 57.35546875 99.578125 C57.81928955 100.35744385 58.28311035 101.1367627 58.76098633 101.93969727 C59.76617661 103.6111851 60.79723619 105.26709666 61.8359375 106.91796875 C63.45687286 109.81715851 63.4860999 111.73618639 63 115 C59.5855352 119.37564121 54.68560815 121.52764797 49.875 124.0625 C42.00264205 128.2727761 34.36693296 132.72856499 26.91357422 137.64672852 C26.22279785 138.08686279 25.53202148 138.52699707 24.8203125 138.98046875 C24.22492676 139.37129639 23.62954102 139.76212402 23.01611328 140.16479492 C20.29285682 141.29294464 17.91467382 141.13323487 15 141 C14.59386475 140.28271729 14.18772949 139.56543457 13.76928711 138.82641602 C11.8285607 135.4032847 9.88432749 131.98216394 7.9375 128.5625 C7.581185 127.93651917 7.22487 127.31053833 6.85775757 126.66558838 C1.04487172 116.46560968 -4.91243902 106.36619448 -11.03735352 96.34985352 C-21 79.95602848 -21 79.95602848 -21 76 C-28.11820907 78.32759512 -34.08637435 81.88476465 -40.4375 85.8125 C-52.29797954 93.04482378 -64.32539255 99.91431475 -76.50488281 106.59912109 C-78.03855039 107.4601959 -79.55785589 108.34829449 -81.04980469 109.27978516 C-84.95779306 111.71880579 -87.44761361 112.16301018 -92 112 C-92.40726318 111.26064209 -92.81452637 110.52128418 -93.23413086 109.75952148 C-94.78691101 106.94375215 -96.34208649 104.12932273 -97.89892578 101.3157959 C-98.58970325 100.06650196 -99.27964886 98.81674769 -99.96875 97.56652832 C-104.82469853 88.73666318 -104.82469853 88.73666318 -110.03515625 80.11328125 C-110.45998291 79.44176025 -110.88480957 78.77023926 -111.32250977 78.07836914 C-112.4165482 76.37958129 -113.53542609 74.69686086 -114.65625 73.015625 C-116.39866053 69.10533161 -116.30755903 67.06056514 -115 63 C-112.61328125 61.0234375 -112.61328125 61.0234375 -109.3125 59.375 C-108.02697852 58.7037041 -106.7432422 58.02898284 -105.4609375 57.3515625 C-104.7503418 56.98321289 -104.03974609 56.61486328 -103.30761719 56.23535156 C-98.9301404 53.89192874 -94.69716238 51.29928384 -90.4375 48.75 C-83.16317322 44.43119993 -75.85532571 40.17927263 -68.5 36 C-61.29055175 31.90349213 -54.12986212 27.73349328 -47 23.5 C-37.17371602 17.66742171 -27.29788114 11.92216573 -17.33349609 6.328125 C-15.7449997 5.42402159 -14.17003322 4.49581932 -12.60791016 3.546875 C-8.23915832 0.94879498 -5.25739279 -0.67402472 0 0 Z " fill="#030303" transform="translate(274,218)"/>
</svg>
